<svg xmlns="http://www.w3.org/2000/svg" xmlns:xlink="http://www.w3.org/1999/xlink" viewBox="0 0 3710 3710"><defs><style>.cls-1{isolation:isolate;}.cls-2{fill:#f4f7fa;}.cls-3{fill:#97a6b7;}.cls-4{fill:url(#linear-gradient);}.cls-30,.cls-5,.cls-8,.cls-9{fill:#fff;}.cls-39,.cls-6{fill:#d8dee8;}.cls-32,.cls-43,.cls-49,.cls-6,.cls-65,.cls-71,.cls-78,.cls-81{opacity:0.3;}.cls-32,.cls-43,.cls-49,.cls-6,.cls-65,.cls-71,.cls-78,.cls-81,.cls-94{mix-blend-mode:multiply;}.cls-7{fill:url(#linear-gradient-2);}.cls-8{opacity:0.6;}.cls-30,.cls-8,.cls-9{mix-blend-mode:soft-light;}.cls-9{opacity:0.36;}.cls-10{fill:url(#linear-gradient-3);}.cls-11,.cls-12,.cls-13,.cls-15,.cls-16,.cls-17,.cls-18,.cls-20,.cls-21,.cls-22,.cls-23,.cls-24,.cls-26,.cls-27,.cls-28{opacity:0.5;}.cls-11{fill:url(#linear-gradient-4);}.cls-12{fill:url(#linear-gradient-5);}.cls-13{fill:url(#linear-gradient-6);}.cls-14{fill:url(#linear-gradient-7);}.cls-15{fill:url(#linear-gradient-8);}.cls-16{fill:url(#linear-gradient-9);}.cls-17{fill:url(#linear-gradient-10);}.cls-18{fill:url(#linear-gradient-11);}.cls-19{fill:url(#linear-gradient-12);}.cls-20{fill:url(#linear-gradient-13);}.cls-21{fill:url(#linear-gradient-14);}.cls-22{fill:url(#linear-gradient-15);}.cls-23{fill:url(#linear-gradient-16);}.cls-24{fill:url(#linear-gradient-17);}.cls-25{fill:url(#linear-gradient-18);}.cls-26{fill:url(#linear-gradient-19);}.cls-27{fill:url(#linear-gradient-20);}.cls-28{fill:url(#linear-gradient-21);}.cls-29{fill:url(#linear-gradient-22);}.cls-31{fill:url(#linear-gradient-23);}.cls-32{fill:url(#linear-gradient-24);}.cls-33{fill:url(#linear-gradient-25);}.cls-34{fill:url(#linear-gradient-26);}.cls-35{fill:url(#linear-gradient-27);}.cls-36{fill:url(#linear-gradient-28);}.cls-37{fill:#00b8b4;}.cls-38{fill:url(#linear-gradient-29);}.cls-40{fill:url(#linear-gradient-30);}.cls-41{fill:url(#linear-gradient-31);}.cls-42{fill:url(#linear-gradient-32);}.cls-44{fill:url(#linear-gradient-33);}.cls-45{fill:url(#linear-gradient-34);}.cls-46{fill:url(#linear-gradient-35);}.cls-47{fill:url(#linear-gradient-36);}.cls-48{fill:url(#linear-gradient-37);}.cls-49{fill:url(#linear-gradient-38);}.cls-50{fill:url(#linear-gradient-39);}.cls-51{fill:url(#linear-gradient-40);}.cls-52{fill:url(#linear-gradient-41);}.cls-53{fill:url(#linear-gradient-42);}.cls-54{fill:url(#linear-gradient-43);}.cls-55{fill:url(#linear-gradient-44);}.cls-56{fill:url(#linear-gradient-45);}.cls-57{fill:url(#linear-gradient-46);}.cls-58{fill:url(#linear-gradient-47);}.cls-59{fill:url(#linear-gradient-48);}.cls-60{fill:url(#linear-gradient-49);}.cls-61{fill:url(#linear-gradient-50);}.cls-62{fill:#26264f;}.cls-63{fill:url(#linear-gradient-51);}.cls-64{fill:url(#linear-gradient-52);}.cls-65{fill:url(#linear-gradient-53);}.cls-66{fill:url(#linear-gradient-54);}.cls-67{fill:url(#linear-gradient-55);}.cls-68{fill:url(#linear-gradient-56);}.cls-69{fill:url(#linear-gradient-57);}.cls-70{fill:url(#linear-gradient-58);}.cls-71{fill:url(#linear-gradient-59);}.cls-72{fill:url(#linear-gradient-60);}.cls-73{fill:url(#linear-gradient-61);}.cls-74{fill:url(#linear-gradient-62);}.cls-75{fill:url(#linear-gradient-63);}.cls-76{fill:url(#linear-gradient-64);}.cls-77{fill:url(#linear-gradient-65);}.cls-78{fill:url(#linear-gradient-66);}.cls-79{fill:url(#linear-gradient-67);}.cls-80{fill:url(#linear-gradient-68);}.cls-81{fill:url(#linear-gradient-69);}.cls-82{fill:url(#linear-gradient-70);}.cls-83{fill:url(#linear-gradient-71);}.cls-84{fill:url(#linear-gradient-72);}.cls-85{fill:url(#linear-gradient-73);}.cls-86{fill:url(#linear-gradient-74);}.cls-87{fill:url(#linear-gradient-75);}.cls-88{fill:url(#linear-gradient-76);}.cls-89{fill:url(#linear-gradient-77);}.cls-90{fill:url(#linear-gradient-78);}.cls-91{fill:url(#linear-gradient-79);}.cls-92{fill:url(#linear-gradient-80);}.cls-93{fill:url(#linear-gradient-81);}.cls-94{opacity:0.2;}.cls-95{fill:url(#linear-gradient-82);}</style><linearGradient id="linear-gradient" x1="1879.34" y1="3643.03" x2="1886.14" y2="3065.27" gradientUnits="userSpaceOnUse"><stop offset="0.49" stop-color="#ebeff2"/><stop offset="1" stop-color="#fff"/></linearGradient><linearGradient id="linear-gradient-2" x1="1593.64" y1="1778.48" x2="2712.67" y2="3830.91" gradientUnits="userSpaceOnUse"><stop offset="0" stop-color="#444b8c"/><stop offset="1" stop-color="#26264f"/></linearGradient><linearGradient id="linear-gradient-3" x1="1760.43" y1="1177.4" x2="1961.3" y2="2401.77" gradientUnits="userSpaceOnUse"><stop offset="0" stop-color="#e38ddd"/><stop offset="1" stop-color="#9571f6"/></linearGradient><linearGradient id="linear-gradient-4" x1="1655.93" y1="1534.18" x2="2126.94" y2="1534.18" gradientUnits="userSpaceOnUse"><stop offset="0" stop-color="#ff9085"/><stop offset="1" stop-color="#fb6fbb"/></linearGradient><linearGradient id="linear-gradient-5" x1="1655.93" y1="1580.56" x2="2126.94" y2="1580.56" xlink:href="#linear-gradient-4"/><linearGradient id="linear-gradient-6" x1="1573.19" y1="1717.65" x2="1907.84" y2="1717.65" xlink:href="#linear-gradient-4"/><linearGradient id="linear-gradient-7" x1="1764.71" y1="1178.14" x2="1948.5" y2="2298.42" xlink:href="#linear-gradient-3"/><linearGradient id="linear-gradient-8" x1="1463.75" y1="1433.35" x2="1798.19" y2="1433.35" xlink:href="#linear-gradient-4"/><linearGradient id="linear-gradient-9" x1="1655.93" y1="2462.21" x2="2126.94" y2="2462.21" xlink:href="#linear-gradient-4"/><linearGradient id="linear-gradient-10" x1="1655.93" y1="2508.58" x2="2126.94" y2="2508.58" xlink:href="#linear-gradient-4"/><linearGradient id="linear-gradient-11" x1="1871.1" y1="2546.99" x2="2329.91" y2="2546.99" xlink:href="#linear-gradient-4"/><linearGradient id="linear-gradient-12" x1="1907.53" y1="1416.53" x2="2051.09" y2="2291.58" xlink:href="#linear-gradient-3"/><linearGradient id="linear-gradient-13" x1="1463.75" y1="2376.29" x2="1798.19" y2="2376.29" xlink:href="#linear-gradient-4"/><linearGradient id="linear-gradient-14" x1="1573.19" y1="1905" x2="2048.93" y2="1905" xlink:href="#linear-gradient-4"/><linearGradient id="linear-gradient-15" x1="1655.93" y1="1998.44" x2="2126.94" y2="1998.44" xlink:href="#linear-gradient-4"/><linearGradient id="linear-gradient-16" x1="1655.93" y1="2044.82" x2="2126.94" y2="2044.82" xlink:href="#linear-gradient-4"/><linearGradient id="linear-gradient-17" x1="1464.58" y1="2093.64" x2="1766.42" y2="2093.64" xlink:href="#linear-gradient-4"/><linearGradient id="linear-gradient-18" x1="1715.92" y1="1252.29" x2="1882.76" y2="2269.23" xlink:href="#linear-gradient-3"/><linearGradient id="linear-gradient-19" x1="1655.93" y1="2230.7" x2="2081.7" y2="2230.7" xlink:href="#linear-gradient-4"/><linearGradient id="linear-gradient-20" x1="1755.44" y1="2275.13" x2="2176.09" y2="2275.13" xlink:href="#linear-gradient-4"/><linearGradient id="linear-gradient-21" x1="1755.44" y1="2321.29" x2="2176.09" y2="2321.29" xlink:href="#linear-gradient-4"/><linearGradient id="linear-gradient-22" x1="1524.43" y1="1208.51" x2="1709.33" y2="2335.47" xlink:href="#linear-gradient-3"/><linearGradient id="linear-gradient-23" x1="210.58" y1="579.85" x2="582.29" y2="1489.01" gradientTransform="matrix(-0.99, -0.15, -0.15, 0.99, 3548.48, 206.01)" gradientUnits="userSpaceOnUse"><stop offset="0" stop-color="#aa80f9"/><stop offset="1" stop-color="#6165d7"/></linearGradient><linearGradient id="linear-gradient-24" x1="518.57" y1="1649.32" x2="532.83" y2="1253.03" xlink:href="#linear-gradient-23"/><linearGradient id="linear-gradient-25" x1="-1903.63" y1="-989.25" x2="-1968.48" y2="-505.5" gradientTransform="matrix(-0.78, -0.63, -0.63, 0.78, 982.39, 612.99)" xlink:href="#linear-gradient-23"/><linearGradient id="linear-gradient-26" x1="-1912.83" y1="-1126.21" x2="-1997.49" y2="-50.32" gradientTransform="matrix(-0.78, -0.63, -0.63, 0.78, 982.39, 612.99)" xlink:href="#linear-gradient-23"/><linearGradient id="linear-gradient-27" x1="274.68" y1="1737.6" x2="336.83" y2="1156.6" gradientTransform="matrix(-0.99, -0.15, -0.15, 0.99, 3548.48, 206.01)" gradientUnits="userSpaceOnUse"><stop offset="0" stop-color="#ffc444"/><stop offset="1" stop-color="#f36f56"/></linearGradient><linearGradient id="linear-gradient-28" x1="6977.79" y1="2683.19" x2="7015.03" y2="2335.08" gradientTransform="translate(-3681.9 -1133.32) rotate(5.03)" xlink:href="#linear-gradient-27"/><linearGradient id="linear-gradient-29" x1="-238.72" y1="3348.5" x2="-154.68" y2="3348.5" gradientTransform="matrix(1, 0.03, -0.03, 1, 3110.93, -31.24)" gradientUnits="userSpaceOnUse"><stop offset="0" stop-color="#311944"/><stop offset="1" stop-color="#893976"/></linearGradient><linearGradient id="linear-gradient-30" x1="354.22" y1="3630.89" x2="443.51" y2="3630.89" gradientTransform="matrix(0.96, 0.27, -0.27, 0.96, 3123.76, -308.92)" xlink:href="#linear-gradient-29"/><linearGradient id="linear-gradient-31" x1="2784.54" y1="3140.56" x2="2546.38" y2="2603.71" gradientTransform="matrix(-1, 0, 0, 1, 5316.61, 0)" xlink:href="#linear-gradient-29"/><linearGradient id="linear-gradient-32" x1="2190.46" y1="3351.33" x2="1952.32" y2="2814.49" gradientTransform="matrix(-0.99, -0.12, -0.12, 0.99, 5233.6, 108.12)" xlink:href="#linear-gradient-29"/><linearGradient id="linear-gradient-33" x1="2355.39" y1="3030.21" x2="2461.89" y2="2524.32" gradientTransform="matrix(-1, 0, 0, 1, 5316.61, 0)" xlink:href="#linear-gradient-4"/><linearGradient id="linear-gradient-34" x1="2643.73" y1="2590.6" x2="2598.32" y2="2461.94" gradientTransform="matrix(-1, 0, 0, 1, 5316.61, 0)" xlink:href="#linear-gradient-3"/><linearGradient id="linear-gradient-35" x1="2445.36" y1="2404.19" x2="2462.01" y2="2519.23" gradientTransform="matrix(-1, 0, 0, 1, 5316.61, 0)" xlink:href="#linear-gradient-3"/><linearGradient id="linear-gradient-36" x1="2775.28" y1="2414.26" x2="2686.74" y2="2288.55" gradientTransform="matrix(-1, 0, 0, 1, 5316.61, 0)" xlink:href="#linear-gradient-3"/><linearGradient id="linear-gradient-37" x1="2605.45" y1="2622.32" x2="2799.2" y2="2228.77" gradientTransform="matrix(-1, 0, 0, 1, 5316.61, 0)" xlink:href="#linear-gradient-3"/><linearGradient id="linear-gradient-38" x1="2510.81" y1="2369.73" x2="2936.45" y2="2369.73" gradientTransform="matrix(-1, 0, 0, 1, 5316.61, 0)" xlink:href="#linear-gradient-3"/><linearGradient id="linear-gradient-39" x1="-389.05" y1="1919.01" x2="-452.6" y2="1757.59" gradientTransform="translate(3277.58 162.92) rotate(0.21)" gradientUnits="userSpaceOnUse"><stop offset="0" stop-color="#311944"/><stop offset="1" stop-color="#6b3976"/></linearGradient><linearGradient id="linear-gradient-40" x1="-408.46" y1="1926.74" x2="-472.08" y2="1765.15" xlink:href="#linear-gradient-39"/><linearGradient id="linear-gradient-41" x1="1611.17" y1="2447.21" x2="1699.06" y2="2095.66" gradientTransform="matrix(-1, 0, 0, 1, 2497.43, 0)" gradientUnits="userSpaceOnUse"><stop offset="0" stop-color="#6165d7"/><stop offset="1" stop-color="#aa80f9"/></linearGradient><linearGradient id="linear-gradient-42" x1="1352.53" y1="3276.1" x2="1394.22" y2="3313.18" gradientTransform="matrix(-0.99, -0.14, -0.14, 0.99, 2600.28, 206.94)" xlink:href="#linear-gradient-2"/><linearGradient id="linear-gradient-43" x1="467.42" y1="3313.24" x2="467.42" y2="3240.61" gradientTransform="matrix(-0.99, -0.14, -0.14, 0.99, 1684.07, 77.42)" xlink:href="#linear-gradient-27"/><linearGradient id="linear-gradient-44" x1="1356.72" y1="3271.39" x2="1398.41" y2="3308.47" gradientTransform="matrix(-0.99, -0.14, -0.14, 0.99, 2600.28, 206.94)" xlink:href="#linear-gradient-2"/><linearGradient id="linear-gradient-45" x1="1400" y1="3284.63" x2="1441.69" y2="3321.71" gradientTransform="matrix(-1, 0, 0, 1, 2497.43, 0)" xlink:href="#linear-gradient-2"/><linearGradient id="linear-gradient-46" x1="514.85" y1="3321.79" x2="514.85" y2="3249.16" gradientTransform="matrix(-1, 0, 0, 1, 1572.12, 0)" xlink:href="#linear-gradient-27"/><linearGradient id="linear-gradient-47" x1="839.01" y1="3355.09" x2="567.14" y2="2257.45" gradientTransform="translate(221.69)" xlink:href="#linear-gradient-2"/><linearGradient id="linear-gradient-48" x1="1281.36" y1="2536.8" x2="593.92" y2="2058.71" gradientTransform="matrix(1, 0, 0, 1, 0, 0)" xlink:href="#linear-gradient-41"/><linearGradient id="linear-gradient-49" x1="1404.19" y1="3279.92" x2="1445.89" y2="3317" gradientTransform="matrix(-1, 0, 0, 1, 2497.43, 0)" xlink:href="#linear-gradient-2"/><linearGradient id="linear-gradient-50" x1="1535.08" y1="1831.41" x2="1760.86" y2="2115.46" gradientTransform="matrix(-1, 0.07, 0.07, 1, 2456.69, 20.52)" xlink:href="#linear-gradient-27"/><linearGradient id="linear-gradient-51" x1="1544.61" y1="1823.84" x2="1770.38" y2="2107.88" gradientTransform="matrix(-1, 0.07, 0.07, 1, 2456.69, 20.52)" xlink:href="#linear-gradient-27"/><linearGradient id="linear-gradient-52" x1="804.97" y1="2371.41" x2="846.48" y2="2371.41" gradientTransform="matrix(1, 0, 0, 1, 0, 0)" xlink:href="#linear-gradient-41"/><linearGradient id="linear-gradient-53" x1="834.75" y1="2435.85" x2="1147.6" y2="2435.85" gradientTransform="matrix(1, 0, 0, 1, 0, 0)" xlink:href="#linear-gradient-41"/><linearGradient id="linear-gradient-54" x1="1389.17" y1="2224.62" x2="1451.55" y2="2303.1" gradientTransform="matrix(1, 0, 0, 1, 0, 0)" xlink:href="#linear-gradient-27"/><linearGradient id="linear-gradient-55" x1="1797.61" y1="2574.84" x2="1140.64" y2="2117.94" xlink:href="#linear-gradient-41"/><linearGradient id="linear-gradient-56" x1="-2835.8" y1="1113.38" x2="-2663.53" y2="1113.38" gradientTransform="translate(4938.56)" xlink:href="#linear-gradient-27"/><linearGradient id="linear-gradient-57" x1="-2130.87" y1="1436.82" x2="-1796.81" y2="1436.82" gradientTransform="translate(3936.97)" xlink:href="#linear-gradient-23"/><linearGradient id="linear-gradient-58" x1="4828.51" y1="825.71" x2="4842.95" y2="1085.62" gradientTransform="matrix(-0.96, 0.29, 0.29, 0.96, 6470.64, -392.26)" xlink:href="#linear-gradient-3"/><linearGradient id="linear-gradient-59" x1="-1973.84" y1="1449.38" x2="-1639.78" y2="1449.38" gradientTransform="translate(3936.97)" xlink:href="#linear-gradient-23"/><linearGradient id="linear-gradient-60" x1="2111.48" y1="1885.71" x2="2133.2" y2="1885.71" gradientUnits="userSpaceOnUse"><stop offset="0" stop-color="#311944"/><stop offset="1" stop-color="#a03976"/></linearGradient><linearGradient id="linear-gradient-61" x1="-1952.49" y1="1229.4" x2="-1652.97" y2="1593.34" gradientTransform="translate(3936.97)" xlink:href="#linear-gradient-23"/><linearGradient id="linear-gradient-62" x1="-1057.03" y1="648.28" x2="-1453.17" y2="980.01" gradientTransform="translate(3842.78 27.22) rotate(-2.92)" xlink:href="#linear-gradient-2"/><linearGradient id="linear-gradient-63" x1="1333.23" y1="1240.19" x2="1654.94" y2="950.94" gradientTransform="matrix(-1, 0, 0, 1, 3834.02, 0)" xlink:href="#linear-gradient-27"/><linearGradient id="linear-gradient-64" x1="2295.14" y1="908.17" x2="2408.56" y2="908.17" xlink:href="#linear-gradient-60"/><linearGradient id="linear-gradient-65" x1="2309.5" y1="1202.16" x2="2307.05" y2="978.31" xlink:href="#linear-gradient-60"/><linearGradient id="linear-gradient-66" x1="1343.8" y1="1251.95" x2="1665.52" y2="962.7" gradientTransform="matrix(-1, 0, 0, 1, 3834.02, 0)" xlink:href="#linear-gradient-27"/><linearGradient id="linear-gradient-67" x1="1449.82" y1="1297.86" x2="1742.43" y2="1297.86" gradientTransform="matrix(-1, 0, 0, 1, 3834.02, 0)" xlink:href="#linear-gradient-3"/><linearGradient id="linear-gradient-68" x1="1588.95" y1="1221.02" x2="1990.58" y2="1221.02" gradientTransform="matrix(-1, 0, 0, 1, 3834.02, 0)" xlink:href="#linear-gradient-3"/><linearGradient id="linear-gradient-69" x1="-156.59" y1="1114.46" x2="35.25" y2="1304.77" gradientTransform="translate(2093.74)" xlink:href="#linear-gradient-3"/><linearGradient id="linear-gradient-70" x1="1466.54" y1="1238.03" x2="1220.86" y2="996.28" gradientTransform="matrix(-1, 0, 0, 1, 3834.02, 0)" xlink:href="#linear-gradient-27"/><linearGradient id="linear-gradient-71" x1="2240.65" y1="1266.43" x2="2324.63" y2="1266.43" xlink:href="#linear-gradient-60"/><linearGradient id="linear-gradient-72" x1="1422.39" y1="656.78" x2="1741.17" y2="732.08" gradientTransform="matrix(1, 0, 0, 1, 0, 0)" xlink:href="#linear-gradient-29"/><linearGradient id="linear-gradient-73" x1="-1946.4" y1="570.23" x2="-1673.11" y2="1077.11" gradientTransform="matrix(-1, 0, 0, 1, -258.32, 0)" xlink:href="#linear-gradient-3"/><linearGradient id="linear-gradient-74" x1="-2026.51" y1="603.72" x2="-1758.69" y2="1141.16" gradientTransform="matrix(-1, 0, 0, 1, -258.32, 0)" xlink:href="#linear-gradient-3"/><linearGradient id="linear-gradient-75" x1="1637.41" y1="723.24" x2="1092.62" y2="1048.99" gradientTransform="matrix(1, 0, 0, 1, 0, 0)" xlink:href="#linear-gradient-29"/><linearGradient id="linear-gradient-76" x1="-1493.16" y1="845.77" x2="-1189.07" y2="1409.77" gradientTransform="matrix(-1, 0, 0, 1, -258.32, 0)" xlink:href="#linear-gradient-4"/><linearGradient id="linear-gradient-77" x1="-1582.29" y1="883.03" x2="-1284.3" y2="1481.04" gradientTransform="matrix(-1, 0, 0, 1, -258.32, 0)" xlink:href="#linear-gradient-4"/><linearGradient id="linear-gradient-78" x1="1383.53" y1="1285.84" x2="1702.31" y2="1361.14" gradientTransform="matrix(1, 0, 0, 1, 0, 0)" xlink:href="#linear-gradient-27"/><linearGradient id="linear-gradient-79" x1="-1907.54" y1="1199.28" x2="-1634.25" y2="1706.16" gradientTransform="matrix(-1, 0, 0, 1, -258.32, 0)" xlink:href="#linear-gradient-27"/><linearGradient id="linear-gradient-80" x1="-1987.64" y1="1232.77" x2="-1719.83" y2="1770.21" gradientTransform="matrix(-1, 0, 0, 1, -258.32, 0)" xlink:href="#linear-gradient-27"/><linearGradient id="linear-gradient-81" x1="1288.43" y1="1743.06" x2="1317.79" y2="2599.95" xlink:href="#linear-gradient-3"/><linearGradient id="linear-gradient-82" x1="315.22" y1="1713.96" x2="701.14" y2="2222.21" gradientTransform="matrix(-1, 0, 0, 1, 1770.32, 0)" xlink:href="#linear-gradient-3"/></defs><g class="cls-1"><g id="Illustration"><path class="cls-2" d="M1822.33,418.22C1110.08,396.59,493.13,928.06,399.92,1625.41,298,2387.87,858.92,3073.9,1549.1,3183.78c858.48,136.67,1691.14-654,1616.38-1511.72C3109.15,1025.83,2546.34,440.2,1822.33,418.22Z"/><path class="cls-3" d="M2127.27,3146.82a112,112,0,0,1-74.25-84.31l-55.19-273.15-472.1,16.76-58.1,284.56c-8.14,39.85,24.43,79.84,61.95,94.51l197.52,77.29a256.89,256.89,0,0,0,115.47,16.74L2260,3243.51a25.9,25.9,0,0,0,23.41-22.94c1.42-12.31,10-26.13-1.67-30Z"/><path class="cls-4" d="M2132,3130.21a111,111,0,0,1-74.18-83.26l-55.13-269.71L1542,2793.81l-58,281a82.2,82.2,0,0,0,50.85,93.31l197.32,76.31a259.24,259.24,0,0,0,115.36,16.53l417-35.26a25.73,25.73,0,0,0,5.84-50.09Z"/><path class="cls-3" d="M561.05,2970.91c-51.2,3.05-93.08-30.16-93.08-74.06v-1582c0-43.89,41.88-77.78,93.08-75.56L2939,1403.94c37.58,1.62,57.75-28.72,57.75,8.61V2758c0,37.33-30.43,69.52-68,71.76Z"/><path class="cls-5" d="M582.33,2970.91c-51.2,3.05-93.08-30.16-93.08-74.06v-1582c0-43.89,41.88-77.78,93.08-75.56L2950,1341.9c37.58,1.63,68,33.32,68,70.65V2758c0,37.33-30.44,69.52-68,71.76Z"/><path class="cls-6" d="M2950,1373.57l-2367.63-97.4c-27.37-1.13-49.62,17-49.62,40.39V2894.47c0,23.43,22.25,41.16,49.62,39.58L2950,2798.1c20.14-1.16,36.43-18.33,36.43-38.36V1411.33C2986.39,1391.3,2970.1,1374.4,2950,1373.57Z"/><path class="cls-7" d="M2932.36,2684.25,608,2799c-24.4,1.2-44.23-14.93-44.23-36V1337.29c0-21.1,19.83-37.47,44.23-36.57L2932.36,1387a34.47,34.47,0,0,1,33,34.15V2649.7A35,35,0,0,1,2932.36,2684.25Z"/><polygon class="cls-8" points="1187.84 1451.28 657 1435.67 657 1385.06 1187.84 1402.23 1187.84 1451.28"/><polygon class="cls-9" points="1437.82 1444.64 1315.2 1440.92 1315.2 1406.35 1437.82 1410.31 1437.82 1444.64"/><polygon class="cls-9" points="1437.82 1492.32 1315.2 1488.97 1315.2 1454.39 1437.82 1458 1437.82 1492.32"/><polygon class="cls-10" points="2048.93 1509.05 1573.19 1496.03 1573.19 1461.99 2048.93 1476 2048.93 1509.05"/><polygon class="cls-11" points="2126.94 1556.88 1655.93 1545.35 1655.93 1511.48 2126.94 1523.99 2126.94 1556.88"/><polygon class="cls-12" points="2126.94 1602.58 1655.93 1592.41 1655.93 1558.54 2126.94 1569.69 2126.94 1602.58"/><polygon class="cls-8" points="2126.94 1648.27 1655.93 1639.47 1655.93 1605.6 2126.94 1615.38 2126.94 1648.27"/><polygon class="cls-9" points="1437.82 1540.01 1315.2 1537.01 1315.2 1502.43 1437.82 1505.69 1437.82 1540.01"/><polygon class="cls-9" points="1437.82 1587.7 1315.2 1585.05 1315.2 1550.47 1437.82 1553.38 1437.82 1587.7"/><polygon class="cls-9" points="1437.82 1635.39 1315.2 1633.1 1315.2 1598.52 1437.82 1601.07 1437.82 1635.39"/><polygon class="cls-9" points="1437.82 1683.08 1315.2 1681.14 1315.2 1646.56 1437.82 1648.75 1437.82 1683.08"/><polygon class="cls-8" points="1766.42 1688.27 1464.58 1683.5 1464.58 1649.23 1766.42 1654.63 1766.42 1688.27"/><polygon class="cls-9" points="1437.82 1730.77 1315.2 1729.18 1315.2 1694.6 1437.82 1696.44 1437.82 1730.77"/><polygon class="cls-9" points="1437.82 1778.45 1315.2 1777.22 1315.2 1742.65 1437.82 1744.13 1437.82 1778.45"/><polygon class="cls-9" points="1437.82 1826.14 1315.2 1825.27 1315.2 1790.69 1437.82 1791.82 1437.82 1826.14"/><polygon class="cls-13" points="1907.84 1736.84 1573.19 1732.51 1573.19 1698.47 1907.84 1703.49 1907.84 1736.84"/><polygon class="cls-8" points="2081.7 1784.91 1655.93 1780.64 1655.93 1746.77 2081.7 1751.92 2081.7 1784.91"/><polygon class="cls-14" points="2081.7 1830.73 1655.93 1827.7 1655.93 1793.83 2081.7 1797.75 2081.7 1830.73"/><polygon class="cls-9" points="1437.82 1873.83 1315.2 1873.31 1315.2 1838.73 1437.82 1839.51 1437.82 1873.83"/><polygon class="cls-9" points="1437.82 1921.52 1315.2 1921.35 1315.2 1886.77 1437.82 1887.19 1437.82 1921.52"/><polygon class="cls-9" points="1437.82 1969.21 1315.2 1969.39 1315.2 1934.82 1437.82 1934.88 1437.82 1969.21"/><polygon class="cls-9" points="1437.82 2016.89 1315.2 2017.44 1315.2 1982.86 1437.82 1982.57 1437.82 2016.89"/><polygon class="cls-9" points="1437.82 2064.58 1315.2 2065.48 1315.2 2030.9 1437.82 2030.26 1437.82 2064.58"/><polygon class="cls-9" points="1437.82 2112.27 1315.2 2113.52 1315.2 2078.95 1437.82 2077.95 1437.82 2112.27"/><polygon class="cls-9" points="1437.82 2159.96 1315.2 2161.57 1315.2 2126.99 1437.82 2125.64 1437.82 2159.96"/><polygon class="cls-9" points="1437.82 2207.65 1315.2 2209.61 1315.2 2175.03 1437.82 2173.32 1437.82 2207.65"/><polygon class="cls-9" points="1437.82 2255.34 1315.2 2257.65 1315.2 2223.07 1437.82 2221.01 1437.82 2255.34"/><polygon class="cls-9" points="1437.82 2303.02 1315.2 2305.69 1315.2 2271.12 1437.82 2268.7 1437.82 2303.02"/><polygon class="cls-9" points="1437.82 2350.71 1315.2 2353.74 1315.2 2319.16 1437.82 2316.39 1437.82 2350.71"/><polygon class="cls-9" points="1437.82 2398.4 1315.2 2401.78 1315.2 2367.2 1437.82 2364.08 1437.82 2398.4"/><polygon class="cls-9" points="1437.82 2446.09 1315.2 2449.82 1315.2 2415.24 1437.82 2411.76 1437.82 2446.09"/><polygon class="cls-9" points="1437.82 2493.78 1315.2 2497.86 1315.2 2463.29 1437.82 2459.45 1437.82 2493.78"/><polygon class="cls-9" points="1437.82 2541.46 1315.2 2545.91 1315.2 2511.33 1437.82 2507.14 1437.82 2541.46"/><polygon class="cls-9" points="1437.82 2589.15 1315.2 2593.95 1315.2 2559.37 1437.82 2554.83 1437.82 2589.15"/><polygon class="cls-9" points="1437.82 2636.84 1315.2 2641.99 1315.2 2607.41 1437.82 2602.52 1437.82 2636.84"/><polygon class="cls-9" points="1437.82 2684.53 1315.2 2690.04 1315.2 2655.46 1437.82 2650.21 1437.82 2684.53"/><polygon class="cls-15" points="1798.19 1455.54 1463.75 1445.42 1463.75 1411.15 1798.19 1421.97 1798.19 1455.54"/><polygon class="cls-8" points="2048.93 2427.48 1573.19 2441.97 1573.19 2407.93 2048.93 2394.43 2048.93 2427.48"/><polygon class="cls-16" points="2126.94 2470.8 1655.93 2486.5 1655.93 2452.64 2126.94 2437.91 2126.94 2470.8"/><polygon class="cls-17" points="2126.94 2516.49 1655.93 2533.56 1655.93 2499.69 2126.94 2483.61 2126.94 2516.49"/><polygon class="cls-18" points="2329.91 2554.25 1871.1 2572.2 1871.1 2538.78 2329.91 2521.78 2329.91 2554.25"/><polygon class="cls-19" points="2329.91 2599.36 1871.1 2618.64 1871.1 2585.22 2329.91 2566.89 2329.91 2599.36"/><polygon class="cls-8" points="2329.91 2644.47 1871.1 2665.07 1871.1 2631.65 2329.91 2612 2329.91 2644.47"/><polygon class="cls-20" points="1798.19 2388.47 1463.75 2397.68 1463.75 2363.42 1798.19 2354.89 1798.19 2388.47"/><polygon class="cls-21" points="2048.93 1922.34 1573.19 1921.7 1573.19 1887.66 2048.93 1889.29 2048.93 1922.34"/><polygon class="cls-8" points="2126.94 1968.14 1655.93 1968.87 1655.93 1935 2126.94 1935.26 2126.94 1968.14"/><polygon class="cls-22" points="2126.94 2013.84 1655.93 2015.93 1655.93 1982.06 2126.94 1980.95 2126.94 2013.84"/><polygon class="cls-23" points="2126.94 2059.54 1655.93 2062.99 1655.93 2029.12 2126.94 2026.65 2126.94 2059.54"/><polygon class="cls-24" points="1766.42 2108.91 1464.58 2112 1464.58 2077.73 1766.42 2075.28 1766.42 2108.91"/><polygon class="cls-8" points="1907.84 2153.8 1573.19 2158.18 1573.19 2124.14 1907.84 2120.45 1907.84 2153.8"/><polygon class="cls-25" points="2081.7 2197.35 1655.93 2204.16 1655.93 2170.29 2081.7 2164.36 2081.7 2197.35"/><polygon class="cls-26" points="2081.7 2243.17 1655.93 2251.22 1655.93 2217.35 2081.7 2210.19 2081.7 2243.17"/><polygon class="cls-27" points="2176.09 2286.95 1755.44 2296.11 1755.44 2262.44 2176.09 2254.16 2176.09 2286.95"/><polygon class="cls-28" points="2176.09 2332.5 1755.44 2342.88 1755.44 2309.21 2176.09 2299.71 2176.09 2332.5"/><polygon class="cls-29" points="1798.19 1875.36 1463.75 1873.94 1463.75 1839.67 1798.19 1841.79 1798.19 1875.36"/><polygon class="cls-30" points="1187.84 1527.93 884 1520.39 884 1470.44 1187.84 1478.88 1187.84 1527.93"/><polygon class="cls-8" points="805.41 1518.44 862.64 1519.86 862.64 1469.85 805.41 1468.26 805.41 1518.44"/><polygon class="cls-8" points="1187.84 1598.45 884 1592.19 884 1542.24 1187.84 1549.4 1187.84 1598.45"/><polygon class="cls-8" points="805.41 1590.57 862.64 1591.75 862.64 1541.74 805.41 1540.39 805.41 1590.57"/><polygon class="cls-8" points="1187.84 1668.97 884 1663.98 884 1614.04 1187.84 1619.91 1187.84 1668.97"/><polygon class="cls-8" points="805.41 1662.69 862.64 1663.63 862.64 1613.63 805.41 1612.52 805.41 1662.69"/><polygon class="cls-30" points="1187.84 2169.53 657 2176.69 657 2126.07 1187.84 2120.47 1187.84 2169.53"/><polygon class="cls-8" points="1187.84 2246.18 884 2251.67 884 2201.72 1187.84 2197.13 1187.84 2246.18"/><polygon class="cls-8" points="805.41 2253.09 862.64 2252.05 862.64 2202.05 805.41 2202.91 805.41 2253.09"/><polygon class="cls-8" points="1187.84 2316.7 884 2323.47 884 2273.52 1187.84 2267.64 1187.84 2316.7"/><polygon class="cls-8" points="805.41 2325.22 862.64 2323.94 862.64 2273.93 805.41 2275.04 805.41 2325.22"/><polygon class="cls-8" points="1187.84 2387.22 884 2395.26 884 2345.32 1187.84 2338.16 1187.84 2387.22"/><polygon class="cls-8" points="805.41 2397.35 862.64 2395.83 862.64 2345.82 805.41 2347.17 805.41 2397.35"/><polygon class="cls-30" points="1187.84 1739.97 657 1733.51 657 1682.89 1187.84 1690.91 1187.84 1739.97"/><polygon class="cls-8" points="1187.84 1816.62 884 1814.31 884 1764.37 1187.84 1767.56 1187.84 1816.62"/><polygon class="cls-8" points="805.41 1813.71 862.64 1814.15 862.64 1764.14 805.41 1763.54 805.41 1813.71"/><polygon class="cls-8" points="1187.84 1887.14 884 1886.11 884 1836.16 1187.84 1838.08 1187.84 1887.14"/><polygon class="cls-8" points="805.41 1885.84 862.64 1886.04 862.64 1836.03 805.41 1835.67 805.41 1885.84"/><polygon class="cls-8" points="1187.84 2029.09 884 2030.64 884 1980.69 1187.84 1980.03 1187.84 2029.09"/><polygon class="cls-8" points="805.41 2031.04 862.64 2030.75 862.64 1980.74 805.41 1980.86 805.41 2031.04"/><polygon class="cls-8" points="1187.84 2099.61 884 2102.44 884 2052.49 1187.84 2050.55 1187.84 2099.61"/><polygon class="cls-8" points="805.41 2103.17 862.64 2102.64 862.64 2052.63 805.41 2052.99 805.41 2103.17"/><polygon class="cls-8" points="1187.84 1957.66 884 1957.91 884 1907.96 1187.84 1908.6 1187.84 1957.66"/><polygon class="cls-8" points="805.41 1957.97 862.64 1957.92 862.64 1907.92 805.41 1907.8 805.41 1957.97"/><polygon class="cls-30" points="1187.84 2457.71 657 2474.01 657 2423.39 1187.84 2408.66 1187.84 2457.71"/><polygon class="cls-8" points="1187.84 2534.36 884 2545.08 884 2495.13 1187.84 2485.31 1187.84 2534.36"/><polygon class="cls-8" points="805.41 2547.85 862.64 2545.83 862.64 2495.82 805.41 2497.68 805.41 2547.85"/><polygon class="cls-8" points="1187.84 2604.88 884 2616.88 884 2566.93 1187.84 2555.83 1187.84 2604.88"/><polygon class="cls-8" points="805.41 2619.98 862.64 2617.72 862.64 2567.71 805.41 2569.8 805.41 2619.98"/><polygon class="cls-8" points="1187.84 2675.4 884 2688.68 884 2638.73 1187.84 2626.34 1187.84 2675.4"/><polygon class="cls-8" points="805.41 2692.11 862.64 2689.61 862.64 2639.6 805.41 2641.93 805.41 2692.11"/><polygon class="cls-8" points="1252.34 2672.83 1240.65 2673.34 1240.65 1403.94 1252.34 1404.31 1252.34 2672.83"/><path class="cls-8" d="M2702.79,2731.84c-515.4,10.78-631.31,84.37-777.76-3.81-201.23-121.16-109.59-336.7-305.65-449.75-246.5-142.14-530.7,118.17-659.35-8.74-128.12-126.38,113.9-423.84-26.2-755.41-56.23-133.06-152-219.48-218.1-269l-133.4-5.78c-51.2-2.22-93.08,31.67-93.08,75.56v1582c0,43.9,41.88,77.11,93.08,74.06L2950,2829.76c37.58-2.24,68-34.43,68-71.76v-23.92C2947,2731.57,2837.1,2729,2702.79,2731.84Z"/><path class="cls-31" d="M2638.26,1654.58c126.71,114.93,288.07,145.27,369.34,72.23l.05,0,.31-.36a129.35,129.35,0,0,0,9.58-9.45,139.24,139.24,0,0,0,10.59-13.24l98.26-110.65,20.41-23-147.09-129.38a480,480,0,0,0-81.14-95.15c-36.59-33.18-76.08-59.29-115.66-77.95L2655.67,1138.2,2540.6,1281.78c-.42.47-.89.9-1.31,1.36a130.79,130.79,0,0,0-11.8,15,141.7,141.7,0,0,0-14.16,26.55C2476.5,1415.42,2525.24,1552,2638.26,1654.58Z"/><path class="cls-32" d="M2637.35,1655.54c34.24,32.54,73.05,60,115.15,78.66,43.21,19.1,104.23,36.5,152,32.49,79.48-6.65,117-57,165.56-111.13,18.72-20.84,38.82-40.53,56.41-62.37-46.15-5.88-106.05,9.22-149.33,24.45-37.4,13.15-73,34.57-112.64,40.45-87.4,13-180.76-41.24-224.47-115.59-26.71-45.43-16.08-104.38-50.38-146.46-22.17-27.2-56.46-42.08-76.35-71.32,3.56,5.24-8.85,42.41-9.74,50.31a218,218,0,0,0,.63,54.62c5.94,42.34,24,82.29,46.33,118.41A543.42,543.42,0,0,0,2637.35,1655.54Z"/><polygon class="cls-33" points="2541.99 1038.55 3052.78 1152.84 3272.52 1627.9 3286.62 1639.27 3281.71 1645.36 3281.71 1645.36 2750.64 1526.65 2522.29 1032.71 2522.29 1032.71 2527.2 1026.62 2541.99 1038.55"/><polygon class="cls-34" points="3059.54 1144.46 3288.09 1638.57 2756.82 1519.7 2528.27 1025.59 3059.54 1144.46"/><path class="cls-35" d="M3081.18,1884.08a7.76,7.76,0,0,0,8.75-6l57.67-262.74a7.75,7.75,0,0,0-1.21-6.08l-219.27-314.43a7.74,7.74,0,0,0-12.7,8.86l217.33,311.64-56.95,259.43a7.75,7.75,0,0,0,5.9,9.22Z"/><path class="cls-36" d="M3098.89,1871.66l-4.64-10.26a11.67,11.67,0,0,0-20.44-1.46l-5.52,9.77c-1.51,2.34-1.71,5.08-1.95,7.86l-7.54,85.63c-.16,1.84,6.88,4,16.68,4.82s17.1,0,17.27-1.84l7.55-85.87A17.12,17.12,0,0,0,3098.89,1871.66Z"/><path class="cls-37" d="M2560.07,2285.53c-24.41-26.07,43.18-124,79.35-166.91,31.61-37.49,64.09-76,104-71.14,35,4.28,69.1,41.22,71.14,76.61C2820,2219.32,2594.78,2322.58,2560.07,2285.53Z"/><path class="cls-38" d="M2853.21,3291.83c4.6,3.74,5.44,13.07,6,19.16.25,2.73.38,4.09.07,5.05-2.22,7-15.83,7.76-37.17,9.94-33.73,3.45-43.77,6.1-46.41,1.08-2.47-4.7,3.51-12.4,4.19-13.25,3.62-4.57,8.07-6.23,16.67-9.06,15.91-5.24,26.66-8.11,29.92-9C2846.8,3290.35,2850.19,3289.38,2853.21,3291.83Z"/><path class="cls-39" d="M2833.15,3261l-3.37,38.43c1,1.86,12.38,7.43,21.45,2.65l8.68-37.78Z"/><path class="cls-40" d="M2585.72,3286.89c5.5,6.08,6.76,17.29,2,22.8s-11.79,1.36-31.87,2c-21.5.64-27.12,5.72-41.73,1.69-5.91-1.63-16.34-5.59-16.14-9.81.14-3,5.45-4.49,23.18-10.44,25.17-8.43,25.06-8.89,30.4-9.77C2565,3281.09,2578.44,3278.86,2585.72,3286.89Z"/><path class="cls-39" d="M2571.94,3251.81l-10.79,35.89c.81,1.92,11.78,8.34,21.19,4.27l16-34.82Z"/><path class="cls-41" d="M2667.78,2466a3361.43,3361.43,0,0,1-29.52,403.49,3360.88,3360.88,0,0,1-76.69,392.82l41.28,11.11c34.92-32.56,79-83.81,100.22-156.24,13.19-45,8.8-68.05,17.17-123.34,13.32-88,40.3-134.16,68.2-205.15,25.06-63.79,54.69-157.42,70.57-282.56Z"/><path class="cls-42" d="M2792,2454.44q12.64,230.05,20.6,468.59,5.91,178.95,8.76,353.34l42.18,5.21a491.36,491.36,0,0,0,44-113.52c15-60.19,11.54-95.94,18.12-158.32,7.39-70,18.12-85.21,37.13-173.48,38.57-179.13,57.86-268.7,14.83-324.41C2963.64,2493.76,2919.85,2448.39,2792,2454.44Z"/><path class="cls-37" d="M2996.9,2069a654.61,654.61,0,0,0-140.26-23.43c-84.29-4.76-126.43-7.14-156.29,12.93-69,46.35-15.58,153.34-43.81,418.57-4,37.87-4.94,76-7.85,114-4.84,62.88-5.94,66.3-1.57,72.67,27.44,40,129.8-20.31,279.84,3.51,83.94,13.33,122,44,145,21.89,26.82-25.83,3.82-95.31-16-155.11-22.73-68.66-36.77-69.54-49.68-121.24-13.48-54-5.33-81.87-3.23-167.08A1506.56,1506.56,0,0,0,2996.9,2069Z"/><g class="cls-43"><path class="cls-44" d="M2792.88,2566.9c39.22-3.07,64.66,19.1,98.51,1.82,46.41-23.69,61.32-97.41,58.37-149.58-4.5-79.27-49.76-100.16-42-151.4,4.22-27.71,24-64.5,95-102.08.94,31.63.76,58.59.23,80-2.1,85.21-10.25,113,3.23,167.08,12.91,51.7,26.95,52.58,49.68,121.24,19.81,59.8,42.81,129.28,16,155.11-23,22.15-61.07-8.56-145-21.89-129.28-20.53-223.11,21.33-264.17,7.75C2712.4,2593,2757.4,2569.67,2792.88,2566.9Z"/></g><path class="cls-37" d="M2943.41,2074.42c28-23,84.32,3,99.38,10,83.94,38.83,159.31,143.46,140.64,254-2.8,16.58-15.79,94.15-81.47,131.74-59.27,33.91-139.3,25.19-203.41-22.85L2872.26,2424l-25.87-28a207.66,207.66,0,0,1,68.92-38c42.63-13.76,73.67,10.93,93.45-7.84,13.65-12.95,13.68-35.83,10.31-49.69-6.79-27.95-31.42-35.81-52-55.64C2918.78,2198.34,2909.88,2102,2943.41,2074.42Z"/><polygon class="cls-45" points="2540.94 2435.4 2916.33 2429.8 2816.51 2477.98 2539.98 2459.88 2540.94 2435.4"/><path class="cls-46" d="M2929.58,2439.78h0a16.72,16.72,0,0,1-11,15.7l-119.95,47-.55-32.6,118.25-40.1A10.38,10.38,0,0,1,2929.58,2439.78Z"/><path class="cls-5" d="M2871.77,2417.56c2.31-.51-11.22-27.46-21.84-24.35s-62.56,33.21-67.28,45.6l-4.72,12.4s22.66,1.77,36.71-2.95S2853,2421.74,2871.77,2417.56Z"/><path class="cls-47" d="M2788.12,2241.16l26.47,240.93c.91,8.31-10.73,20.69-19.08,20.3l-388.17-23.83a13.61,13.61,0,0,1-12.77-11.29l-48.72-232.69c-1.46-8.47,13.77-17.21,22.35-17L2775,2229A13.62,13.62,0,0,1,2788.12,2241.16Z"/><path class="cls-48" d="M2779.25,2248.19l26.46,240.92a13.6,13.6,0,0,1-14.17,15.08l-393.08-18.61a13.6,13.6,0,0,1-12.76-11.29l-40.16-233.75a13.6,13.6,0,0,1,13.79-15.91l406.78,11.44A13.6,13.6,0,0,1,2779.25,2248.19Z"/><path class="cls-49" d="M2548.44,2429.13c34.32-14.55,22.21-42.29,62.74-76.86,53.46-45.6,108-25.82,127-61.17,5.94-11,8.78-28.13-1.57-55.86l29.46.83a13.6,13.6,0,0,1,13.14,12.12l26.46,240.92a13.6,13.6,0,0,1-14.17,15.08l-393.08-18.61a13.6,13.6,0,0,1-12.76-11.29l-5.55-32.25A148.63,148.63,0,0,1,2423,2426C2480.63,2414.3,2508.92,2445.88,2548.44,2429.13Z"/><path class="cls-5" d="M2373.7,2451.89a3.08,3.08,0,0,1,2.76-4c8.31-.42,27.57-.59,38.21,5.92,13.82,8.46,31.69,23.91,16.64,31.7l-14,7.28a3,3,0,0,1-2.06.28c-5-1.09-26-5.76-28.3-6.91C2384.81,2485.05,2376.8,2461.28,2373.7,2451.89Z"/><path class="cls-5" d="M2850.34,1953.47a291.63,291.63,0,0,0,5.22,58.37c3,15.55,5.19,19.57,8,22.83,4.18,4.9,10.52,9,46.33,17.9,19.48,4.83,22,4.7,22.42,6.63,2.1,9.43-51,41.58-105.92,33.83-33.6-4.74-64.16-23.9-62.29-34s35.45-4.69,45.45-23c7-12.75-.84-30.84-10.06-45.83C2808.39,1973.48,2841.41,1970.2,2850.34,1953.47Z"/><path class="cls-50" d="M2788,1963.35c-7.93-10.53-8.42-28.92.72-40.54,7.86-10,20.23-11.43,27.64-12.29,21.46-2.47,48.54,6.49,58,26.24,5.58,11.7-6.49,36-8.38,40.4-2.15,4.94-6,6.64-9.62,10.38-5,5.18-12.76,13.43-25.48,27.21a88.26,88.26,0,0,0-4.88-14.56,78.18,78.18,0,0,0-10.19-17.11C2804.58,1969.44,2795.51,1973.33,2788,1963.35Z"/><path class="cls-5" d="M2849,2003.16s-14.11,23.15-42.2,21.32c-25.15-1.64-28.84-58-12.77-70,5.36-4,16.09-5.65,24.82-3.21,5.15,1.45,6.9,3.59,15.37,5.79,7.81,2,10,1.16,12.37,3.14,3,2.48,5.11,8.57.19,25.06,4.8-4.86,10.56-6.73,14.64-4.8a8.58,8.58,0,0,1,3.35,3.26C2868.25,1990.16,2862.37,1998.38,2849,2003.16Z"/><path class="cls-51" d="M2847.7,1956.82c-1.21.9,2.5,5.43,2.77,11.83.54,12.43-12,27.36-24.88,28.62-7.59.75-9.68-3.82-22.22-5.15a57.48,57.48,0,0,0-18.31,1.06c-3.94,13.63-.23,27.23,8.88,33.54,9.82,6.79,22.35,2.67,27.59.94,3.51-1.15,14.74-4.82,20.61-15.12,6.12-10.73.11-17.21,7.13-24.47,3.54-3.66,8.19-5.24,12.72-12.33a35.24,35.24,0,0,0,2.55-4.78C2858.05,1964.08,2849.46,1955.51,2847.7,1956.82Z"/><path class="cls-5" d="M2794.19,1998.23s5.43,2.84,14.82,2.31c.46,0,1,.11,1,.35.22.89-5.81,4.88-11.36,3.32-3.93-1.11-7-4.84-6.47-5.79C2792.42,1998,2793.32,1998.08,2794.19,1998.23Z"/><path class="cls-52" d="M830.26,2097.27c-6.67,2.52-108.39,43-129.3,149.14-1.69,8.57-18,99.79,43.83,164.22,69.36,72.26,202.92,70.47,255.94,10.06,12.36-14.08,18.88-29.7,22.54-42.81h0l-14-37.11c-17-20.58-40.25-25.46-52.65-28.51-30.55-7.53-53.62,6.08-71.12-8.66-9.68-8.15-11.6-19.88-13.32-30.36-5.86-35.7,14.29-57.67,15.76-79.69,1.1-16.46,6.86-52.52-14.62-76C859.75,2102.63,840.9,2098.57,830.26,2097.27Z"/><path class="cls-53" d="M790.62,3280.44c-1.18-6.54-22.29-12.45-32.74-3.7-5.19,4.35-8.76,13.16-5.76,17.14,1.09,1.45-3.38,4,.9,4C767.24,3298.09,791.8,3286.93,790.62,3280.44Z"/><path class="cls-54" d="M768.5,3282.82l-21.71-3.07c10.06-12.11,8.2-50.67,8.2-50.67l23.08,5.16s-2.63,10.58-7.1,26.19C769.44,3265.78,768.75,3274.14,768.5,3282.82Z"/><path class="cls-55" d="M770.43,3280.14s-26.14-6-29-.83-5,19.06,11.55,18.61S771.9,3284.54,770.43,3280.14Z"/><path class="cls-56" d="M1088.47,3305c-2.09-6.31-23.82-9.21-32.94.92-4.53,5-6.84,14.25-3.31,17.77,1.29,1.28-2.79,4.43,1.46,3.88C1067.78,3325.69,1090.54,3311.21,1088.47,3305Z"/><path class="cls-57" d="M1066.89,3310.4H1045c8.26-13.4,1-51.32,1-51.32l23.58,1.87s-1.12,10.85-3.37,26.94C1065.43,3293.39,1065.93,3301.77,1066.89,3310.4Z"/><path class="cls-58" d="M1123.71,2481.38a1014.33,1014.33,0,0,1,34,155.57c26.63,193.7-30,199.87-19.4,414.52,3.38,68.51-59.36,226.5-64.88,230a68.68,68.68,0,0,1-8.68.34,86.71,86.71,0,0,1-22.09-3.68c-9.94-1.72-45.77-98.76-37.46-156.45,5.87-40.84,4.17-84.66.76-172.31-.55-14.2-36.89-276.31-36.89-276.31h0c-11,97-23.76,179.45-34.78,243.36C898.87,3121.75,783.75,3246,777.75,3248c-1.19.48-12,4.4-20.82-1.42a14.38,14.38,0,0,1-5.27-5.93c-3.08-2.42.91-205,36-357.48,51-221.31,28.78-273.09,44.92-371.95C846.57,2425.72,1123.71,2481.38,1123.71,2481.38Z"/><path class="cls-59" d="M1137.36,2514.81c-30.61,15.71-109.43,43.85-203.38,29.87a316.41,316.41,0,0,1-99.23-32.29l-2.17-1.1c24.41-73.8,5.29-113.29-3.74-149.69-12.88-51.89-13.06-48-23.67-89.21-17.47-68-20.33-137.55-8.33-151.75,32.37-38.35,90.72-39.74,121-40.66,33.84-1,111.64-12.92,154.46,25.62.74.66-8,5.35-3.7,10.42a281.64,281.64,0,0,1,30.23,43.41c9,16.11,17.22,34.9,25.44,62.86A541.92,541.92,0,0,1,1144.33,2332q.66,9.09,1.21,17.58C1151.23,2440.53,1144,2484.42,1137.36,2514.81Z"/><path class="cls-60" d="M1068.42,3307.48s-26.71-2.3-28.79,3.23-2.3,19.57,14,16.81S1070.5,3311.63,1068.42,3307.48Z"/><path class="cls-61" d="M1015.23,2036.74c9.22-18.41,3.15-38.28,1.79-42.57-5.67-18-7.5-20.62-11.17-24.25l-5.14-4.73-.65-.4c-3.49-2.06-16.2-4.91-18.9-4.86-8.62.17-23.93,32.18-30.62,80.32-.7,1.75-1.38,3.52-2.06,5.3-4.21,11.11-7.72,22-10.66,32.57-57.67,9-65.25,16.33-65.23,20.28,0,8.31,33.76,15.57,58.87,17.47,54.78,4.15,109.52-14,108.55-24.14-.41-4.4-11.59-9.38-58-12.18q.83-11.53,1.63-23.05C987.34,2055.41,1008.43,2050.3,1015.23,2036.74Z"/><path class="cls-62" d="M1020.47,1955c-2.9,14.76-12.9,29.18-16.94,31a25.05,25.05,0,0,0-6.47,4.81,7.54,7.54,0,0,0-1.18,1.58c-5,8.68,7.65,22.49,4,26.1-2.65,2.63-11.93-3.36-13.63-1s5.77,8.94,3.93,11.63c-1.4,2-6.15-1-10,1.79-1.94,1.38-1.73,2.82-4.44,7.67a47.71,47.71,0,0,1-4.9,7.26c-6.78,7.69-21.84,8.06-23.95,4.06-.59-1.12.23-1.8.07-5.2a26.34,26.34,0,0,0-1.57-7c-2-5.54-8.57-10.49-14.83-17.14-11.61-12.31-13.68-21.3-14.24-24.31-.2-1.07-.3-1.87-.37-2.44-1.4-11.56,1.67-27.55,8.46-36.44,11.37-14.88,28.35-3.49,46.64-16.89,21.09-15.45,15.66-43.19,25.68-44.2C1007.72,1895.14,1025.83,1927.68,1020.47,1955Z"/><path class="cls-63" d="M995.23,2014c-2.66-5.67-9.92-2.23-11.2,4.2s3.67,14.32,10,14.21S998.81,2021.62,995.23,2014Z"/><path class="cls-64" d="M843.38,2465.57h-.21a2,2,0,0,1-1.74-2.17c4-35.81-3.45-61.86-10-84.84-1.61-5.63-3.17-11.09-4.5-16.48-7.29-29.39-10.48-40.75-13.86-52.78-2.23-7.89-4.49-16-8-29.58a2,2,0,0,1,1.41-2.4,1.94,1.94,0,0,1,2.4,1.41c3.53,13.56,5.8,21.63,8,29.5,3.39,12.06,6.59,23.45,13.88,52.9,1.33,5.35,2.88,10.77,4.47,16.35,6.65,23.33,14.19,49.77,10.13,86.35A2,2,0,0,1,843.38,2465.57Z"/><path class="cls-65" d="M1137.36,2514.81c-30.61,15.71-109.43,43.85-203.38,29.87a316.41,316.41,0,0,1-99.23-32.29c10.9-8.48,24.33-22.68,46.53-46.83,26.9-29.21,58.42-18.31,77-7.3a43.77,43.77,0,0,0,66-36.51,195.26,195.26,0,0,0-1-24.41c-6.35-66.46,85.72-72.11,85.72-72.11,13-6.75,25.32,4.15,36.55,24.37C1151.23,2440.53,1144,2484.42,1137.36,2514.81Z"/><path class="cls-66" d="M1459.23,2218.76c-3.7.35-8.19,4.1-11.34,5.89-4.48,2.54-9,5-13.55,7.42-8.82,4.59-18.16,8-28.24,7.81a22.33,22.33,0,0,1,1.35-4.25c1.7-4,4-7.45,2.61-8.65-1.92-1.74-10.39,1.85-18.2,9.34a49.76,49.76,0,0,0-8.64,10.82c-4,6.8-3.32,10.51-6.65,15.69-5,4.45-8.68,5.42-8.68,5.42v1.42l.56,1.74a46,46,0,0,1-13.36,6.69c6.9,1.85,13.64,3.74,20.51,5.63l4.77,8s26-5.45,41.71-15c7.34-4.47,9.87-10,10.49-14.57a19.7,19.7,0,0,0-.41-7.34c-.33-1.2-.62-1.93-.62-1.93s21.43-8.9,29.9-28.15C1462.72,2221.82,1462.84,2218.41,1459.23,2218.76Z"/><path class="cls-67" d="M1368.44,2260.25c12.24,8.56,18.8,20.19,22.2,27.61-9,21.12-29.4,60.33-71.63,89.22-69.25,47.38-170.78,49-241.51-5-84.49-64.56-98.61-188.34-63.12-241.35,4.09-6.11,17.52-26.17,38.37-28.47,13.17-1.46,31.09,4,59.41,37.13,59,69.08,38.16,112.22,73,132.43C1237.46,2302.08,1315.14,2223,1368.44,2260.25Z"/><path class="cls-68" d="M2246.24,934.6c-21.68-6.33-50.67,33.5-74.77,66.6-36,49.53-78.17,107.4-66.83,176.89,11.17,68.37,69.78,121.62,86.48,114,14.29-6.51-13.18-52.5,7.87-114,17-49.62,45.11-49.64,64-98.29C2286.38,1019.42,2272.93,942.4,2246.24,934.6Z"/><path class="cls-69" d="M2235.51,1249.51c-111.71,27.12-185.29,70.66-228.26,101.45-23.29,16.69-34,27.1-39.86,42.27-33.09,86.47,136.92,217.2,155,230.89q11.88-27.67,23.74-55.36c-17.57-96.42-46.81-126.67-71.29-135.67-6.84-2.52-18.34-5.22-18.11-8.45.52-7.67,65.1,3.25,126.81-19.33,61.54-22.51,123.36-79.48,112.32-117.15C2293.89,1281.28,2285.44,1261.41,2235.51,1249.51Z"/><path class="cls-70" d="M2127.19,1881.5s10.4,3.71,10.44,11.93-10.53,44.45-22,57.32-12.51-6.33-11.8-18.7,3.72-40.06,6.56-45.42S2127.19,1881.5,2127.19,1881.5Z"/><path class="cls-71" d="M2093.8,1375.92c-20.29-.4-67.85-4.18-80.51,19.33-10.57,19.61,7.94,49.34,19.32,67.63,30.94,49.72,61,54.8,82.13,85.35,8.19,11.82,15.6,28.34,18,51.93l13.46-31.4c-17.57-96.42-46.81-126.67-71.29-135.67-6.84-2.52-18.34-5.22-18.11-8.45.52-7.67,65.1,3.25,126.81-19.33,56.09-20.52,112.24-69.64,113.4-106.7C2208.16,1362.32,2141.3,1376.85,2093.8,1375.92Z"/><path class="cls-72" d="M2133.2,1846.56c-.61,12.67-1.69,23.27-2.66,31.13-2.14,17.41-4.12,24.3-6.82,30.57-2.36,5.47-8.25,17.4-11.06,16.57s.08-14,2.31-50.8c.32-5.33,1.3-22.31,1.3-22.31h0Z"/><path class="cls-73" d="M2299.93,1256.76a502.09,502.09,0,0,0-130.44,112.72c-28.68,35.18-72.3,88.68-88.09,168.46-8.42,42.52-4.28,80.67,4.35,155.22a1562.65,1562.65,0,0,0,30.47,175.5l14.84,6c13.26-24.35,30.6-62.91,36.82-112.22,10.17-80.66-20-106.3-5.52-163.5,12.54-49.56,48.9-80,121.61-140.72,59.74-49.93,114.83-79.56,135.28-141.84,3.47-10.57,6.42-23.55.76-35.43C2407.81,1255.31,2361.14,1246.38,2299.93,1256.76Z"/><path class="cls-74" d="M2351.31,939.22c-16.71-3.59-44.19-2.88-70.38-23.51-7.88-6.21-35.82-28.2-32.43-59.68,3-27.71,29.25-42.6,32.47-44.37,18.6-10.23,37.13-8,57.69-5.15,26.65,3.65,35.5,10.93,54,15.92,45.82,12.35,61.31-13.43,107.45-11.25,59,2.78,64.06,46.32,113.67,47.41,55.7,1.22,66.37-53.29,121.36-62.52,76.32-12.82,191.8,69.34,189.48,164.06-1.35,54.71-42.08,117.4-94.11,136.23-30.33,11-63.06,7.48-72.4,27.21-6.65,14,8.3,24.84,6.89,49.3-1.82,31.53-29,53.65-33.35,57.22-40.69,33.17-131.91,16.41-194.2-30.51C2425.14,1115,2442.14,958.76,2351.31,939.22Z"/><path class="cls-75" d="M2480.34,928a1196.19,1196.19,0,0,0-130-8.87c-102.47-1.39-117.14,11.61-120.9,21.23-7,17.93,5,26.91-1.81,58.18-4.07,18.69-.23,27.21-8.09,47.3-7.67,19.57-1.66,30.09,5.12,76,8.67,58.7,12.67,88.53-3.75,112.19-11.41,16.44-24.18,17.83-23,25.64,2.59,16.63,60.11,7.46,132.95,39.4,21.08,9.24,40.49,20.64,56.76,30.19,38.11,22.38,45.16,30.93,62.8,41.07,55.81,32,139.64,35.14,183.58-3.63,16.38-14.45,28.32-35.7,22.95-43.48-7.32-10.58-40,13.47-70.05-1.2-19.89-9.72-16.11-25.45-39.1-44-27.67-22.29-46.91-10.61-65.74-25.12-29.38-22.63-16-76.82-7.77-167.67A1518,1518,0,0,0,2480.34,928Z"/><path class="cls-76" d="M2369.44,906.87c14,8.67,36.57,20,39.06,23.08s-68.44,15.21-112.58-7.06c0,0-6.84-3.8,19.77-9.12,5.67-1.14,4.56-12.16,3.8-23.57l5.32-9.88S2355.47,898.19,2369.44,906.87Z"/><path class="cls-77" d="M2334.19,873.61s5.48,23.25-15,34.75c-18.34,10.29-49.37-31.9-43.58-47.58,1.94-5.23,8.84-12,16.06-14.22,5.08-1.59,24.29-1,32.51,15.2,2.16-4.73,6-7.21,8.61-6.43,3.29,1,3.77,7,3.88,8.33A16.78,16.78,0,0,1,2334.19,873.61Z"/><path class="cls-78" d="M2302.43,1246.43c21.1,8.75,24,27.65,53.13,38.37,27.83,10.23,37.17-2.59,64.93,5.91,41.69,12.75,57.64,53,64,49.19,5.78-3.48.23-42-26.57-66.9-30.77-28.64-63.93-15.53-83.62-45.26-7.66-11.57-13.57-30-6.89-44.27,9.06-19.28,32.72-12.59,45.26-28.53,22.52-28.64-30.19-80.3-15.74-124,5.76-17.42,24.12-39.27,83.33-53.89-.81,43.77-3.33,80.35-5.85,108.13-8.25,90.85-21.61,145,7.77,167.67,18.83,14.51,38.07,2.83,65.74,25.12,23,18.53,19.21,34.26,39.1,44,30,14.67,62.73-9.38,70.05,1.2,5.37,7.78-6.57,29-22.95,43.48-43.94,38.77-127.77,35.68-183.58,3.63-17.64-10.14-24.69-18.69-62.8-41.07-16.27-9.55-35.68-21-56.76-30.19-51.12-22.42-94.66-24.59-117-29.63C2258.28,1239.82,2285.3,1239.33,2302.43,1246.43Z"/><path class="cls-79" d="M2098.76,1276.12l267.71,13a11.26,11.26,0,0,1,9,5.29l7.4,11.89a8.69,8.69,0,0,1-7.71,13.28l-283.57-10.8Z"/><path class="cls-80" d="M1853,1128.22l276.57,5.36a23.18,23.18,0,0,1,19.72,11.73l95.78,168.5L1953,1302.18a23.76,23.76,0,0,1-19.45-11.55l-88.74-148.24A9.36,9.36,0,0,1,1853,1128.22Z"/><path class="cls-81" d="M2149.3,1145.31a23.2,23.2,0,0,0-19.73-11.73l-6.06-.12c-.9,8.93-3.64,17.09-9.1,23.69-17.06,20.58-45.39,7.89-66.51,29.67-23.2,23.93-1.77,52.42-22.51,74.69-21.83,23.44-57.13,4.36-97.72,19.36l5.85,9.76a23.76,23.76,0,0,0,19.45,11.55l292.1,11.63Z"/><path class="cls-82" d="M2322.62,1276.26l-9.06-23.9c33.35-9.14,79.46-22.65,126.75-39.55,11.69-4.17,16-9.57,19.09-13.72,24.25-32.16-37.46-88.89-36.35-162.51.76-51,31.7-109.4,59-110.06,55.41-1.35,177.59,233.77,74.69,334.12C2505.63,1310.45,2410.21,1316.23,2322.62,1276.26Z"/><path class="cls-83" d="M2313.56,1252.36c-20.93-11.12-46,.28-47.6,1a62.49,62.49,0,0,0-18.05,12.95c-.77,1-9.85,13.62-6.54,17.65,2.65,3.23,12.92.56,25.26-7.12a95.56,95.56,0,0,1,22.1-.54c16.94,1.56,24.7,6.91,30.85,2.29,4.5-3.38,6-10.53,4.42-15.84C2322.26,1257.08,2317.11,1254.24,2313.56,1252.36Z"/><path class="cls-84" d="M1633.56,538.73c105,3.22,193.16,67.32,210.35,148.46l.06.32c.93,4.44,1.65,8.94,2.14,13.47,0,.3.07.6.1.9q.33,3.18.51,6.39l.06,1.16c.1,2.19.17,4.38.17,6.58,0,94.29-96.24,165.75-213.39,159.69q-4.66-.26-9.29-.66l-.91-.07q-4.36-.4-8.69-.94l-1.35-.16q-4.18-.54-8.31-1.21l-1.56-.25q-4-.67-8.06-1.47l-1.62-.33q-4-.83-7.91-1.75l-1.51-.37c-2.6-.64-5.18-1.3-7.74-2l-1.37-.4c-2.31-.65-4.59-1.33-6.86-2.05l-1.73-.53q-3.45-1.12-6.84-2.33l-1.48-.5,0,0c-77.87-28.09-132.62-91.31-132.62-162C1425.73,606.8,1518.11,535.19,1633.56,538.73Z"/><path class="cls-85" d="M1403.5,698.64c0,91.85,92.38,171.08,207.84,177.06,117.15,6.06,213.38-65.4,213.38-159.69s-96.23-173.68-213.38-177.28C1495.88,535.19,1403.5,606.8,1403.5,698.64Z"/><g class="cls-43"><path class="cls-86" d="M1560.37,830.28c25.28-48.44-.27-96,33.93-126.62,34.89-31.27,80.46,1,129.8-23.77,19.16-9.62,40.51-28.66,56.42-69,27.7,29.67,44.2,66.17,44.2,105.12,0,94.29-96.23,165.75-213.38,159.69a262.11,262.11,0,0,1-75.24-15A103.25,103.25,0,0,0,1560.37,830.28Z"/></g><path class="cls-5" d="M1505.69,661.55q-13.51,0-20.9,10.46t-7.37,29.26q0,39.11,28.27,39.57,11.93.2,29-5.74v21a77.27,77.27,0,0,1-31.24,5.43q-24.6-.49-37.5-16.19t-12.88-44.46q0-18.15,6.32-31.78a47,47,0,0,1,18.23-21q11.93-7.3,28.07-7.31,16.51,0,33.3,8.32l-7.82,20.31a127.38,127.38,0,0,0-12.84-5.53A37.22,37.22,0,0,0,1505.69,661.55Z"/><path class="cls-5" d="M1636.06,729.2q0,16.26-11.48,25.39t-31.74,8.71q-18.58-.37-32.78-7.79V732.17a134.37,134.37,0,0,0,19.79,7.86,58,58,0,0,0,14.91,2.44q8.13.13,12.49-3t4.36-9.41a10.77,10.77,0,0,0-1.92-6.28,22.09,22.09,0,0,0-5.64-5.34,145.05,145.05,0,0,0-15.1-8.25q-10.65-5.25-16-10a37.11,37.11,0,0,1-8.45-11,32.16,32.16,0,0,1-3.15-14.62q0-15.72,10.38-24.71t28.88-9a67.59,67.59,0,0,1,17.41,2.2,119,119,0,0,1,17.42,6.25L1627.43,669a117,117,0,0,0-15.54-5.54,49.14,49.14,0,0,0-12-1.6q-7,0-10.75,3.31a12,12,0,0,0-2.23,14.52,17.15,17.15,0,0,0,4.81,4.84q3.3,2.34,15.68,8.48,16.43,8.16,22.56,16.3T1636.06,729.2Z"/><path class="cls-5" d="M1737,730.65q0,16.5-11.86,25.8t-32.77,8.83q-19.2-.37-33.85-7.92V733.64a139.25,139.25,0,0,0,20.44,8,61,61,0,0,0,15.39,2.49q8.4.14,12.9-3t4.5-9.56a10.8,10.8,0,0,0-2-6.38,22.72,22.72,0,0,0-5.83-5.43c-2.55-1.74-7.76-4.54-15.59-8.39q-11-5.33-16.46-10.17a37.84,37.84,0,0,1-8.73-11.21,32.25,32.25,0,0,1-3.26-14.86q0-16,10.72-25.1t29.82-9.16a70.58,70.58,0,0,1,18,2.24,124.74,124.74,0,0,1,18,6.35l-8.33,20.05a120.52,120.52,0,0,0-16-5.63,51.38,51.38,0,0,0-12.42-1.63q-7.26,0-11.11,3.36a12,12,0,0,0-2.3,14.76,17.44,17.44,0,0,0,5,4.91q3.4,2.38,16.19,8.63,17,8.29,23.3,16.56T1737,730.65Z"/><path class="cls-87" d="M1174.18,810.73c116.82,3.58,214.93,74.9,234,165.19,0,.11,0,.23.07.35q1.54,7.41,2.38,15c0,.33.08.66.11,1q.36,3.54.57,7.11l.06,1.29c.11,2.43.19,4.87.19,7.32,0,104.92-107.08,184.43-237.43,177.68-3.47-.18-6.91-.43-10.34-.73l-1-.08c-3.24-.29-6.47-.65-9.67-1l-1.5-.18c-3.11-.4-6.19-.85-9.26-1.34l-1.73-.29c-3-.5-6-1-9-1.63l-1.8-.37c-3-.61-5.89-1.25-8.8-2l-1.69-.41c-2.89-.71-5.77-1.45-8.61-2.24l-1.53-.43c-2.56-.73-5.11-1.49-7.63-2.29l-1.92-.59c-2.57-.83-5.1-1.7-7.62-2.59-.54-.19-1.1-.36-1.64-.56l0,0c-86.65-31.25-147.57-101.6-147.57-180.26C942.92,886.47,1045.71,806.78,1174.18,810.73Z"/><path class="cls-88" d="M918.19,988.66c0,102.19,102.79,190.35,231.26,197,130.35,6.75,237.43-72.76,237.43-177.68S1279.8,814.73,1149.45,810.73C1021,806.78,918.19,886.47,918.19,988.66Z"/><g class="cls-43"><path class="cls-89" d="M1092.74,1135.13c28.13-53.9-.31-106.79,37.75-140.89,38.83-34.8,89.53,1.11,144.43-26.45,21.31-10.7,45.07-31.89,62.77-76.77,30.83,33,49.19,73.62,49.19,117,0,104.92-107.08,184.43-237.43,177.68a291.55,291.55,0,0,1-83.71-16.72A114.92,114.92,0,0,0,1092.74,1135.13Z"/></g><path class="cls-5" d="M1071.81,1051.67l-93.57-45.52V992.07l93.57-48.5v24.09L1007,998.51l64.84,29.17Z"/><path class="cls-5" d="M1172.39,925.31l-53.91,148.11-27-.8,53.32-147.31Z"/><path class="cls-5" d="M1192.51,1030.17l69.88-27.84-69.88-33.64V944l102.09,52.4v15l-102.09,43.33Z"/><path class="cls-90" d="M1594.7,1167.79c105,3.22,193.16,67.32,210.34,148.46,0,.11,0,.21.07.32q1.4,6.66,2.14,13.47c0,.3.07.6.1.9q.33,3.18.51,6.38c0,.39,0,.78.05,1.17.11,2.18.18,4.37.18,6.58,0,94.29-96.24,165.75-213.39,159.68q-4.67-.24-9.29-.65l-.91-.08c-2.91-.26-5.81-.58-8.69-.93l-1.35-.17c-2.79-.35-5.56-.76-8.32-1.2l-1.55-.25c-2.71-.46-5.39-1-8.06-1.48l-1.62-.33q-4-.81-7.91-1.74l-1.51-.38c-2.6-.63-5.19-1.3-7.75-2l-1.37-.39c-2.3-.65-4.59-1.34-6.85-2.05-.58-.18-1.16-.35-1.73-.54-2.3-.74-4.58-1.52-6.85-2.32l-1.47-.5,0,0c-77.88-28.09-132.63-91.31-132.63-162C1386.86,1235.86,1479.24,1164.24,1594.7,1167.79Z"/><path class="cls-91" d="M1364.63,1327.7c0,91.84,92.39,171.08,207.84,177,117.15,6.07,213.39-65.39,213.39-159.68s-96.24-173.69-213.39-177.28C1457,1164.24,1364.63,1235.86,1364.63,1327.7Z"/><g class="cls-43"><path class="cls-92" d="M1521.51,1459.34c25.28-48.44-.28-96,33.92-126.62,34.9-31.28,80.47,1,129.81-23.78,19.15-9.61,40.51-28.65,56.41-69,27.71,29.66,44.21,66.17,44.21,105.12,0,94.29-96.24,165.75-213.39,159.68a262.45,262.45,0,0,1-75.23-15A103.38,103.38,0,0,0,1521.51,1459.34Z"/></g><path class="cls-5" d="M1472.12,1296.66c-8.24.07-14.57,3.7-19,10.84s-6.62,17-6.62,29.62c0,26.33,8.45,39.86,25.64,40.6,7.33.31,16.3-1.43,27-5.28v21.73a64.53,64.53,0,0,1-29,4.62c-14.93-.85-26.16-6.68-33.84-17.44s-11.37-25.54-11.37-44.76q0-18.16,5.56-31.84t16.23-21.31q10.74-7.62,25.47-8c10.16-.23,20.5,2.39,31,7.93l-7.36,21.13a114,114,0,0,0-12-5.58A31.16,31.16,0,0,0,1472.12,1296.66Z"/><path class="cls-5" d="M1552.64,1348.87l-29.86-.69v-18.57l29.86.35v-33.68l17.39-.16v34l31.66.37V1350l-31.66-.74v33.6l-17.39-.75Z"/><path class="cls-5" d="M1659.05,1351.35l-33.83-.79v-19.75l33.83.4v-35.88l19.74-.17v36.28l36,.42v20.79l-36-.84v35.81l-19.74-.86Z"/><path class="cls-93" d="M1101.3,1918.76c-20.44-25.6-32.22-55.66-32.22-87.81,0-93.5,99.56-169.3,222.36-169.3s222.36,75.8,222.36,169.3-99.55,169.29-222.36,169.29c-46,0-88.78-10.65-124.26-28.88-23.45,4-59.85,10.72-79.06,14.3a7.39,7.39,0,0,1-8.26-9.87Z"/><g class="cls-94"><path class="cls-95" d="M1169.76,1866.77c49.86-21,104.69,23.28,139-7.58,34.55-31.11-2.78-92.61,30.32-136.44,15.78-20.9,42.29-30.79,72.62-34.24,61.44,30.12,102.13,82.66,102.13,142.44,0,93.5-99.55,169.29-222.36,169.29-46,0-88.78-10.65-124.26-28.88-18.5,3.16-45.06,8-64.88,11.67C1116.92,1907.22,1143.81,1877.68,1169.76,1866.77Z"/></g><rect class="cls-5" x="1143.45" y="1768.19" width="292.12" height="17.81" rx="8.26"/><rect class="cls-5" x="1143.45" y="1818.07" width="292.12" height="17.81" rx="8.26"/><rect class="cls-5" x="1143.45" y="1867.94" width="153.19" height="17.81" rx="8.5"/></g></g></svg>